<svg width="279" height="161" viewBox="0 0 279 161" fill="none" xmlns="http://www.w3.org/2000/svg">
<mask id="mask0_1480_1954" style="mask-type:alpha" maskUnits="userSpaceOnUse" x="40" y="56" width="153" height="54">
<path d="M185.491 70.001H192.225L178.003 109.001H171.269L175.975 96.001L166.615 70.001H173.557L179.147 87.317L185.491 70.001Z" fill="#1A1A1A"/>
<path d="M163.97 76.3449H158.926V96.0009H152.582V76.3449H148.734V70.0009H152.582V61.8369H158.926V70.0009H163.97V76.3449Z" fill="#1A1A1A"/>
<path d="M132.986 96.6774C130.594 96.6774 128.41 96.0621 126.434 94.8314C124.475 93.6008 122.907 91.9454 121.728 89.8654C120.567 87.7854 119.986 85.4888 119.986 82.9754C119.986 81.0861 120.324 79.3181 121 77.6714C121.676 76.0074 122.603 74.5514 123.782 73.3034C124.978 72.0381 126.365 71.0501 127.942 70.3394C129.519 69.6288 131.201 69.2734 132.986 69.2734C135.014 69.2734 136.869 69.7068 138.55 70.5734C140.249 71.4228 141.687 72.5928 142.866 74.0834C144.045 75.5741 144.903 77.2728 145.44 79.1794C145.977 81.0861 146.099 83.0794 145.804 85.1594H126.798C127.041 86.1301 127.439 87.0054 127.994 87.7854C128.549 88.5481 129.251 89.1634 130.1 89.6314C130.949 90.0821 131.911 90.3161 132.986 90.3334C134.095 90.3508 135.101 90.0908 136.002 89.5534C136.921 88.9988 137.683 88.2534 138.29 87.3174L144.764 88.8254C143.707 91.1308 142.129 93.0201 140.032 94.4934C137.935 95.9494 135.586 96.6774 132.986 96.6774ZM126.59 80.4014H139.382C139.191 79.3614 138.784 78.4254 138.16 77.5934C137.553 76.7441 136.799 76.0681 135.898 75.5654C134.997 75.0628 134.026 74.8114 132.986 74.8114C131.946 74.8114 130.984 75.0628 130.1 75.5654C129.216 76.0508 128.462 76.7181 127.838 77.5674C127.231 78.3994 126.815 79.3441 126.59 80.4014Z" fill="#1A1A1A"/>
<path d="M110.673 64.541V70.001H117.771V76.345H110.673V96.001H104.329V76.345H101.495V70.001H104.329V64.541C104.329 63.0503 104.693 61.6896 105.421 60.459C106.167 59.211 107.163 58.223 108.411 57.495C109.659 56.7496 111.037 56.377 112.545 56.377C113.637 56.377 114.721 56.6023 115.795 57.053C116.87 57.5036 117.823 58.1969 118.655 59.1329L114.079 63.605C113.923 63.3103 113.698 63.0936 113.403 62.955C113.126 62.799 112.84 62.721 112.545 62.721C112.043 62.721 111.601 62.903 111.219 63.267C110.855 63.6136 110.673 64.0383 110.673 64.541Z" fill="#1A1A1A"/>
<path d="M91.7905 70.0014H98.1345V96.0014H91.7905L91.5045 92.7774C90.7939 93.9388 89.8492 94.8834 88.6705 95.6114C87.5092 96.3221 86.1312 96.6774 84.5365 96.6774C82.6125 96.6774 80.8099 96.3134 79.1285 95.5854C77.4472 94.8574 75.9652 93.8521 74.6825 92.5694C73.4172 91.2868 72.4205 89.8048 71.6925 88.1234C70.9819 86.4421 70.6265 84.6394 70.6265 82.7154C70.6265 80.8608 70.9645 79.1188 71.6405 77.4894C72.3339 75.8601 73.2959 74.4301 74.5265 73.1994C75.7572 71.9688 77.1785 71.0068 78.7905 70.3134C80.4025 69.6201 82.1359 69.2734 83.9905 69.2734C85.7065 69.2734 87.2405 69.6548 88.5925 70.4174C89.9619 71.1801 91.1232 72.1508 92.0765 73.3294L91.7905 70.0014ZM84.3805 90.5674C85.7325 90.5674 86.9285 90.2294 87.9685 89.5534C89.0085 88.8774 89.8232 87.9674 90.4125 86.8234C91.0019 85.6621 91.2965 84.3881 91.2965 83.0014C91.2965 81.5974 91.0019 80.3234 90.4125 79.1794C89.8232 78.0181 88.9999 77.0994 87.9425 76.4234C86.9025 75.7474 85.7152 75.4094 84.3805 75.4094C83.0459 75.4094 81.8239 75.7561 80.7145 76.4494C79.6225 77.1254 78.7472 78.0354 78.0885 79.1794C77.4472 80.3234 77.1265 81.5974 77.1265 83.0014C77.1265 84.4054 77.4559 85.6794 78.1145 86.8234C78.7732 87.9674 79.6485 88.8774 80.7405 89.5534C81.8499 90.2294 83.0632 90.5674 84.3805 90.5674Z" fill="#1A1A1A"/>
<path d="M53.6538 96.6766C51.6431 96.6766 49.7105 96.3646 47.8558 95.7406C46.0185 95.0992 44.4065 94.1892 43.0198 93.0106C41.6331 91.8146 40.6365 90.3846 40.0298 88.7206L45.9838 86.5366C46.2265 87.2299 46.7205 87.8626 47.4658 88.4346C48.2111 89.0066 49.1211 89.4659 50.1958 89.8126C51.2705 90.1592 52.4231 90.3326 53.6538 90.3326C54.9191 90.3326 56.0978 90.1419 57.1898 89.7606C58.2991 89.3619 59.1918 88.8159 59.8678 88.1226C60.5438 87.4119 60.8818 86.5886 60.8818 85.6526C60.8818 84.6992 60.5265 83.9192 59.8158 83.3126C59.1051 82.6886 58.1951 82.1946 57.0858 81.8306C55.9765 81.4666 54.8325 81.1892 53.6538 80.9986C51.0711 80.5999 48.7571 79.9846 46.7118 79.1526C44.6665 78.3206 43.0458 77.1679 41.8498 75.6946C40.6711 74.2212 40.0818 72.3146 40.0818 69.9746C40.0818 67.7732 40.7145 65.8492 41.9798 64.2026C43.2451 62.5559 44.9091 61.2732 46.9718 60.3546C49.0345 59.4359 51.2618 58.9766 53.6538 58.9766C55.6471 58.9766 57.5711 59.2886 59.4258 59.9126C61.2805 60.5366 62.9011 61.4466 64.2878 62.6426C65.6918 63.8386 66.6971 65.2772 67.3038 66.9586L61.3238 69.1166C61.0811 68.4232 60.5871 67.7906 59.8418 67.2186C59.0965 66.6466 58.1865 66.1959 57.1118 65.8666C56.0371 65.5199 54.8845 65.3466 53.6538 65.3466C52.4231 65.3292 51.2531 65.5286 50.1438 65.9446C49.0518 66.3432 48.1591 66.8892 47.4658 67.5826C46.7725 68.2759 46.4258 69.0732 46.4258 69.9746C46.4258 71.1359 46.7465 72.0112 47.3878 72.6006C48.0465 73.1899 48.9218 73.6232 50.0138 73.9006C51.1058 74.1606 52.3191 74.4032 53.6538 74.6286C56.0805 75.0099 58.3251 75.6512 60.3878 76.5526C62.4505 77.4539 64.1058 78.6586 65.3538 80.1666C66.6018 81.6572 67.2258 83.4859 67.2258 85.6526C67.2258 87.8539 66.6018 89.7866 65.3538 91.4506C64.1058 93.0972 62.4505 94.3799 60.3878 95.2986C58.3251 96.2172 56.0805 96.6766 53.6538 96.6766Z" fill="#1A1A1A"/>
</mask>
<g mask="url(#mask0_1480_1954)">
<mask id="mask1_1480_1954" style="mask-type:alpha" maskUnits="userSpaceOnUse" x="31" y="55" width="182" height="54">
<rect x="213" y="109" width="182" height="54" rx="27" transform="rotate(180 213 109)" fill="#32C700"/>
</mask>
<g mask="url(#mask1_1480_1954)">
<path d="M213 82C213 96.9117 200.912 109 186 109H58C43.0883 109 31 96.9117 31 82V82C31 67.0883 43.0883 55 58 55H186C200.912 55 213 67.0883 213 82V82Z" fill="url(#paint0_linear_1480_1954)"/>
<g style="mix-blend-mode:plus-lighter" filter="url(#filter0_f_1480_1954)">
<ellipse cx="188.043" cy="112.174" rx="45.3304" ry="13.4497" fill="#45FF1C"/>
</g>
<g style="mix-blend-mode:plus-lighter" filter="url(#filter1_f_1480_1954)">
<ellipse cx="31.0002" cy="61.8499" rx="31.5785" ry="9.36944" fill="#C9D010"/>
</g>
<g style="mix-blend-mode:plus-lighter" filter="url(#filter2_f_1480_1954)">
<ellipse cx="96.364" cy="83.1589" rx="54.1588" ry="16.0691" fill="#155300"/>
</g>
<g style="mix-blend-mode:hue" filter="url(#filter3_f_1480_1954)">
<ellipse cx="207.058" cy="82.0496" rx="54.1588" ry="16.0691" fill="#34C404"/>
</g>
</g>
</g>
<path d="M112.496 7.6H119.984L107.478 27.594V44H101.134V27.594L88.6284 7.6H96.1164L104.306 20.678L112.496 7.6ZM130.574 44.676C128.182 44.676 125.998 44.0607 124.022 42.83C122.063 41.5993 120.494 39.9527 119.316 37.89C118.154 35.81 117.574 33.5133 117.574 31C117.574 29.0933 117.912 27.3167 118.588 25.67C119.264 24.006 120.191 22.55 121.37 21.302C122.566 20.0367 123.952 19.0487 125.53 18.338C127.107 17.6273 128.788 17.272 130.574 17.272C132.966 17.272 135.141 17.8873 137.1 19.118C139.076 20.3487 140.644 22.004 141.806 24.084C142.984 26.164 143.574 28.4693 143.574 31C143.574 32.8893 143.236 34.6573 142.56 36.304C141.884 37.9507 140.948 39.4067 139.752 40.672C138.573 41.92 137.195 42.8993 135.618 43.61C134.058 44.3207 132.376 44.676 130.574 44.676ZM130.574 38.332C131.839 38.332 132.974 37.994 133.98 37.318C134.985 36.642 135.774 35.7493 136.346 34.64C136.935 33.5307 137.23 32.3173 137.23 31C137.23 29.648 136.926 28.4173 136.32 27.308C135.73 26.1813 134.924 25.2887 133.902 24.63C132.896 23.954 131.787 23.616 130.574 23.616C129.326 23.616 128.199 23.954 127.194 24.63C126.188 25.306 125.391 26.2073 124.802 27.334C124.212 28.4607 123.918 29.6827 123.918 31C123.918 32.3693 124.221 33.6087 124.828 34.718C125.434 35.8273 126.24 36.7113 127.246 37.37C128.268 38.0113 129.378 38.332 130.574 38.332ZM146.023 34.38V18H152.367V32.716C152.367 33.7387 152.619 34.6747 153.121 35.524C153.624 36.356 154.291 37.0233 155.123 37.526C155.973 38.0113 156.9 38.254 157.905 38.254C158.945 38.254 159.881 38.0113 160.713 37.526C161.545 37.0233 162.213 36.356 162.715 35.524C163.218 34.6747 163.469 33.7387 163.469 32.716V18H169.813L169.839 44H163.495L163.469 41.634C162.568 42.57 161.502 43.3153 160.271 43.87C159.041 44.4073 157.723 44.676 156.319 44.676C154.43 44.676 152.705 44.2167 151.145 43.298C149.585 42.362 148.337 41.1227 147.401 39.58C146.483 38.02 146.023 36.2867 146.023 34.38ZM175.07 44L175.044 18H181.388L181.414 20.314C182.298 19.378 183.355 18.6413 184.586 18.104C185.816 17.5493 187.142 17.272 188.564 17.272C189.517 17.272 190.47 17.4107 191.424 17.688L188.928 24.084C188.269 23.824 187.61 23.694 186.952 23.694C185.929 23.694 184.993 23.9453 184.144 24.448C183.312 24.9333 182.644 25.6007 182.142 26.45C181.656 27.282 181.414 28.2093 181.414 29.232V44H175.07ZM53.6537 96.676C51.643 96.676 49.7104 96.364 47.8557 95.74C46.0184 95.0987 44.4064 94.1887 43.0197 93.01C41.633 91.814 40.6364 90.384 40.0297 88.72L45.9837 86.536C46.2264 87.2293 46.7204 87.862 47.4657 88.434C48.211 89.006 49.121 89.4653 50.1957 89.812C51.2704 90.1587 52.423 90.332 53.6537 90.332C54.919 90.332 56.0977 90.1413 57.1897 89.76C58.299 89.3613 59.1917 88.8153 59.8677 88.122C60.5437 87.4113 60.8817 86.588 60.8817 85.652C60.8817 84.6987 60.5264 83.9187 59.8157 83.312C59.105 82.688 58.195 82.194 57.0857 81.83C55.9764 81.466 54.8324 81.1887 53.6537 80.998C51.071 80.5993 48.757 79.984 46.7117 79.152C44.6664 78.32 43.0457 77.1673 41.8497 75.694C40.671 74.2207 40.0817 72.314 40.0817 69.974C40.0817 67.7727 40.7144 65.8487 41.9797 64.202C43.245 62.5553 44.909 61.2727 46.9717 60.354C49.0344 59.4353 51.2617 58.976 53.6537 58.976C55.647 58.976 57.571 59.288 59.4257 59.912C61.2804 60.536 62.901 61.446 64.2877 62.642C65.6917 63.838 66.697 65.2767 67.3037 66.958L61.3237 69.116C61.081 68.4227 60.587 67.79 59.8417 67.218C59.0964 66.646 58.1864 66.1953 57.1117 65.866C56.037 65.5193 54.8844 65.346 53.6537 65.346C52.423 65.3287 51.253 65.528 50.1437 65.944C49.0517 66.3427 48.159 66.8887 47.4657 67.582C46.7724 68.2753 46.4257 69.0727 46.4257 69.974C46.4257 71.1353 46.7464 72.0107 47.3877 72.6C48.0464 73.1893 48.9217 73.6227 50.0137 73.9C51.1057 74.16 52.319 74.4027 53.6537 74.628C56.0804 75.0093 58.325 75.6507 60.3877 76.552C62.4504 77.4533 64.1057 78.658 65.3537 80.166C66.6017 81.6567 67.2257 83.4853 67.2257 85.652C67.2257 87.8533 66.6017 89.786 65.3537 91.45C64.1057 93.0967 62.4504 94.3793 60.3877 95.298C58.325 96.2167 56.0804 96.676 53.6537 96.676ZM91.7904 70H98.1344V96H91.7904L91.5044 92.776C90.7937 93.9373 89.8491 94.882 88.6704 95.61C87.5091 96.3207 86.1311 96.676 84.5364 96.676C82.6124 96.676 80.8097 96.312 79.1284 95.584C77.4471 94.856 75.9651 93.8507 74.6824 92.568C73.4171 91.2853 72.4204 89.8033 71.6924 88.122C70.9817 86.4407 70.6264 84.638 70.6264 82.714C70.6264 80.8593 70.9644 79.1173 71.6404 77.488C72.3337 75.8587 73.2957 74.4287 74.5264 73.198C75.7571 71.9673 77.1784 71.0053 78.7904 70.312C80.4024 69.6187 82.1357 69.272 83.9904 69.272C85.7064 69.272 87.2404 69.6533 88.5924 70.416C89.9617 71.1787 91.1231 72.1493 92.0764 73.328L91.7904 70ZM84.3804 90.566C85.7324 90.566 86.9284 90.228 87.9684 89.552C89.0084 88.876 89.8231 87.966 90.4124 86.822C91.0017 85.6607 91.2964 84.3867 91.2964 83C91.2964 81.596 91.0017 80.322 90.4124 79.178C89.8231 78.0167 88.9997 77.098 87.9424 76.422C86.9024 75.746 85.7151 75.408 84.3804 75.408C83.0457 75.408 81.8237 75.7547 80.7144 76.448C79.6224 77.124 78.7471 78.034 78.0884 79.178C77.4471 80.322 77.1264 81.596 77.1264 83C77.1264 84.404 77.4557 85.678 78.1144 86.822C78.7731 87.966 79.6484 88.876 80.7404 89.552C81.8497 90.228 83.0631 90.566 84.3804 90.566ZM110.673 64.54V70H117.771V76.344H110.673V96H104.329V76.344H101.495V70H104.329V64.54C104.329 63.0493 104.693 61.6887 105.421 60.458C106.167 59.21 107.163 58.222 108.411 57.494C109.659 56.7487 111.037 56.376 112.545 56.376C113.637 56.376 114.721 56.6013 115.795 57.052C116.87 57.5027 117.823 58.196 118.655 59.132L114.079 63.604C113.923 63.3093 113.698 63.0927 113.403 62.954C113.126 62.798 112.84 62.72 112.545 62.72C112.043 62.72 111.601 62.902 111.219 63.266C110.855 63.6127 110.673 64.0373 110.673 64.54ZM132.986 96.676C130.594 96.676 128.41 96.0607 126.434 94.83C124.475 93.5993 122.906 91.944 121.728 89.864C120.566 87.784 119.986 85.4873 119.986 82.974C119.986 81.0847 120.324 79.3167 121 77.67C121.676 76.006 122.603 74.55 123.782 73.302C124.978 72.0367 126.364 71.0487 127.942 70.338C129.519 69.6273 131.2 69.272 132.986 69.272C135.014 69.272 136.868 69.7053 138.55 70.572C140.248 71.4213 141.687 72.5913 142.866 74.082C144.044 75.5727 144.902 77.2713 145.44 79.178C145.977 81.0847 146.098 83.078 145.804 85.158H126.798C127.04 86.1287 127.439 87.004 127.994 87.784C128.548 88.5467 129.25 89.162 130.1 89.63C130.949 90.0807 131.911 90.3147 132.986 90.332C134.095 90.3493 135.1 90.0893 136.002 89.552C136.92 88.9973 137.683 88.252 138.29 87.316L144.764 88.824C143.706 91.1293 142.129 93.0187 140.032 94.492C137.934 95.948 135.586 96.676 132.986 96.676ZM126.59 80.4H139.382C139.191 79.36 138.784 78.424 138.16 77.592C137.553 76.7427 136.799 76.0667 135.898 75.564C134.996 75.0613 134.026 74.81 132.986 74.81C131.946 74.81 130.984 75.0613 130.1 75.564C129.216 76.0493 128.462 76.7167 127.838 77.566C127.231 78.398 126.815 79.3427 126.59 80.4ZM163.97 76.344H158.926V96H152.582V76.344H148.734V70H152.582V61.836H158.926V70H163.97V76.344ZM185.491 70H192.225L178.003 109H171.269L175.975 96L166.615 70H173.557L179.147 87.316L185.491 70ZM209.905 70H216.249V96H209.905V70ZM213.129 66.646C212.193 66.646 211.404 66.3427 210.763 65.736C210.122 65.112 209.801 64.332 209.801 63.396C209.801 62.4773 210.122 61.706 210.763 61.082C211.404 60.458 212.184 60.146 213.103 60.146C214.022 60.146 214.793 60.458 215.417 61.082C216.058 61.706 216.379 62.4773 216.379 63.396C216.379 64.332 216.067 65.112 215.443 65.736C214.819 66.3427 214.048 66.646 213.129 66.646ZM229.763 96.468C228.411 96.3813 227.102 96.1127 225.837 95.662C224.589 95.194 223.479 94.5613 222.509 93.764C221.538 92.9667 220.793 92.0133 220.273 90.904L225.629 88.616C225.837 88.9627 226.175 89.3353 226.643 89.734C227.111 90.1153 227.665 90.436 228.307 90.696C228.965 90.956 229.685 91.086 230.465 91.086C231.123 91.086 231.747 90.9993 232.337 90.826C232.943 90.6353 233.429 90.3493 233.793 89.968C234.174 89.5867 234.365 89.0927 234.365 88.486C234.365 87.8447 234.139 87.3507 233.689 87.004C233.255 86.64 232.701 86.3713 232.025 86.198C231.366 86.0073 230.725 85.834 230.101 85.678C228.454 85.3487 226.92 84.8373 225.499 84.144C224.095 83.4507 222.959 82.558 222.093 81.466C221.243 80.3567 220.819 79.022 220.819 77.462C220.819 75.746 221.269 74.264 222.171 73.016C223.089 71.768 224.277 70.806 225.733 70.13C227.206 69.454 228.792 69.116 230.491 69.116C232.553 69.116 234.443 69.5493 236.159 70.416C237.892 71.2653 239.261 72.47 240.267 74.03L235.249 76.994C235.006 76.578 234.668 76.1967 234.235 75.85C233.801 75.486 233.307 75.1913 232.753 74.966C232.198 74.7233 231.617 74.5847 231.011 74.55C230.231 74.5153 229.52 74.5847 228.879 74.758C228.237 74.9313 227.717 75.226 227.319 75.642C226.937 76.058 226.747 76.6127 226.747 77.306C226.747 77.9647 227.007 78.4587 227.527 78.788C228.047 79.1 228.671 79.3427 229.399 79.516C230.144 79.6893 230.855 79.88 231.531 80.088C233.056 80.5907 234.486 81.206 235.821 81.934C237.173 82.662 238.256 83.5547 239.071 84.612C239.885 85.6693 240.275 86.9347 240.241 88.408C240.241 90.0893 239.738 91.5627 238.733 92.828C237.727 94.076 236.427 95.0293 234.833 95.688C233.255 96.3467 231.565 96.6067 229.763 96.468ZM26.4477 148.676C23.9864 148.676 21.6724 148.191 19.5057 147.22C17.3391 146.232 15.4324 144.871 13.7857 143.138C12.1391 141.405 10.8477 139.403 9.91173 137.132C8.97573 134.844 8.50773 132.4 8.50773 129.8C8.50773 127.2 8.97573 124.765 9.91173 122.494C10.8477 120.206 12.1391 118.195 13.7857 116.462C15.4324 114.729 17.3391 113.377 19.5057 112.406C21.6724 111.418 23.9864 110.924 26.4477 110.924C28.9264 110.924 31.2491 111.418 33.4157 112.406C35.5824 113.377 37.4891 114.729 39.1357 116.462C40.7824 118.195 42.0651 120.206 42.9837 122.494C43.9197 124.765 44.3877 127.2 44.3877 129.8C44.3877 132.4 43.9197 134.844 42.9837 137.132C42.0651 139.403 40.7824 141.405 39.1357 143.138C37.4891 144.871 35.5824 146.232 33.4157 147.22C31.2491 148.191 28.9264 148.676 26.4477 148.676ZM26.4477 142.332C28.0424 142.332 29.5417 142.003 30.9457 141.344C32.3497 140.685 33.5804 139.784 34.6377 138.64C35.7124 137.479 36.5444 136.144 37.1337 134.636C37.7404 133.128 38.0437 131.516 38.0437 129.8C38.0437 128.084 37.7404 126.472 37.1337 124.964C36.5271 123.439 35.6864 122.104 34.6117 120.96C33.5544 119.816 32.3237 118.915 30.9197 118.256C29.5331 117.597 28.0424 117.268 26.4477 117.268C24.8531 117.268 23.3537 117.597 21.9497 118.256C20.5457 118.915 19.3064 119.825 18.2317 120.986C17.1744 122.13 16.3424 123.456 15.7357 124.964C15.1464 126.472 14.8517 128.084 14.8517 129.8C14.8517 131.533 15.1551 133.154 15.7617 134.662C16.3684 136.17 17.2004 137.505 18.2577 138.666C19.3324 139.81 20.5631 140.711 21.9497 141.37C23.3537 142.011 24.8531 142.332 26.4477 142.332ZM47.7109 138.38V122H54.0549V136.716C54.0549 137.739 54.3062 138.675 54.8089 139.524C55.3115 140.356 55.9789 141.023 56.8109 141.526C57.6602 142.011 58.5875 142.254 59.5929 142.254C60.6329 142.254 61.5689 142.011 62.4009 141.526C63.2329 141.023 63.9002 140.356 64.4029 139.524C64.9055 138.675 65.1569 137.739 65.1569 136.716V122H71.5009L71.5269 148H65.1829L65.1569 145.634C64.2555 146.57 63.1895 147.315 61.9589 147.87C60.7282 148.407 59.4109 148.676 58.0069 148.676C56.1175 148.676 54.3929 148.217 52.8329 147.298C51.2729 146.362 50.0249 145.123 49.0889 143.58C48.1702 142.02 47.7109 140.287 47.7109 138.38ZM76.7573 148L76.7313 122H83.0753L83.1013 124.314C83.9853 123.378 85.0427 122.641 86.2733 122.104C87.504 121.549 88.83 121.272 90.2513 121.272C91.2047 121.272 92.158 121.411 93.1113 121.688L90.6153 128.084C89.9567 127.824 89.298 127.694 88.6393 127.694C87.6167 127.694 86.6807 127.945 85.8313 128.448C84.9993 128.933 84.332 129.601 83.8293 130.45C83.344 131.282 83.1013 132.209 83.1013 133.232V148H76.7573ZM109.231 148V111.6H122.231C124.207 111.6 125.993 112.094 127.587 113.082C129.199 114.07 130.473 115.396 131.409 117.06C132.345 118.724 132.813 120.553 132.813 122.546C132.813 124.591 132.328 126.446 131.357 128.11C130.404 129.757 129.121 131.074 127.509 132.062C125.897 133.033 124.138 133.518 122.231 133.518H115.575V148H109.231ZM115.575 127.174H121.555C122.457 127.174 123.28 126.949 124.025 126.498C124.771 126.047 125.36 125.441 125.793 124.678C126.244 123.915 126.469 123.066 126.469 122.13C126.469 121.177 126.244 120.319 125.793 119.556C125.36 118.793 124.771 118.187 124.025 117.736C123.28 117.285 122.457 117.06 121.555 117.06H115.575V127.174ZM136.882 148L136.856 122H143.2L143.226 124.314C144.11 123.378 145.168 122.641 146.398 122.104C147.629 121.549 148.955 121.272 150.376 121.272C151.33 121.272 152.283 121.411 153.236 121.688L150.74 128.084C150.082 127.824 149.423 127.694 148.764 127.694C147.742 127.694 146.806 127.945 145.956 128.448C145.124 128.933 144.457 129.601 143.954 130.45C143.469 131.282 143.226 132.209 143.226 133.232V148H136.882ZM156.052 122H162.396V148H156.052V122ZM159.276 118.646C158.34 118.646 157.551 118.343 156.91 117.736C156.268 117.112 155.948 116.332 155.948 115.396C155.948 114.477 156.268 113.706 156.91 113.082C157.551 112.458 158.331 112.146 159.25 112.146C160.168 112.146 160.94 112.458 161.564 113.082C162.205 113.706 162.526 114.477 162.526 115.396C162.526 116.332 162.214 117.112 161.59 117.736C160.966 118.343 160.194 118.646 159.276 118.646ZM179.476 148.676C177.084 148.676 174.9 148.061 172.924 146.83C170.965 145.599 169.397 143.953 168.218 141.89C167.057 139.81 166.476 137.513 166.476 135C166.476 133.093 166.814 131.317 167.49 129.67C168.166 128.006 169.093 126.55 170.272 125.302C171.468 124.037 172.855 123.049 174.432 122.338C176.009 121.627 177.691 121.272 179.476 121.272C181.868 121.272 184.043 121.887 186.002 123.118C187.978 124.349 189.547 126.004 190.708 128.084C191.887 130.164 192.476 132.469 192.476 135C192.476 136.889 192.138 138.657 191.462 140.304C190.786 141.951 189.85 143.407 188.654 144.672C187.475 145.92 186.097 146.899 184.52 147.61C182.96 148.321 181.279 148.676 179.476 148.676ZM179.476 142.332C180.741 142.332 181.877 141.994 182.882 141.318C183.887 140.642 184.676 139.749 185.248 138.64C185.837 137.531 186.132 136.317 186.132 135C186.132 133.648 185.829 132.417 185.222 131.308C184.633 130.181 183.827 129.289 182.804 128.63C181.799 127.954 180.689 127.616 179.476 127.616C178.228 127.616 177.101 127.954 176.096 128.63C175.091 129.306 174.293 130.207 173.704 131.334C173.115 132.461 172.82 133.683 172.82 135C172.82 136.369 173.123 137.609 173.73 138.718C174.337 139.827 175.143 140.711 176.148 141.37C177.171 142.011 178.28 142.332 179.476 142.332ZM196.55 148L196.524 122H202.868L202.894 124.314C203.778 123.378 204.836 122.641 206.066 122.104C207.297 121.549 208.623 121.272 210.044 121.272C210.998 121.272 211.951 121.411 212.904 121.688L210.408 128.084C209.75 127.824 209.091 127.694 208.432 127.694C207.41 127.694 206.474 127.945 205.624 128.448C204.792 128.933 204.125 129.601 203.622 130.45C203.137 131.282 202.894 132.209 202.894 133.232V148H196.55ZM215.72 122H222.064V148H215.72V122ZM218.944 118.646C218.008 118.646 217.219 118.343 216.578 117.736C215.936 117.112 215.616 116.332 215.616 115.396C215.616 114.477 215.936 113.706 216.578 113.082C217.219 112.458 217.999 112.146 218.918 112.146C219.836 112.146 220.608 112.458 221.232 113.082C221.873 113.706 222.194 114.477 222.194 115.396C222.194 116.332 221.882 117.112 221.258 117.736C220.634 118.343 219.862 118.646 218.944 118.646ZM242.249 128.344H237.205V148H230.861V128.344H227.013V122H230.861V113.836H237.205V122H242.249V128.344ZM263.77 122H270.504L256.282 161H249.548L254.254 148L244.894 122H251.836L257.426 139.316L263.77 122Z" fill="#1A1A1A" fill-opacity="0.32"/>
<defs>
<filter id="filter0_f_1480_1954" x="-157.287" y="-201.275" width="690.661" height="626.899" filterUnits="userSpaceOnUse" color-interpolation-filters="sRGB">
<feFlood flood-opacity="0" result="BackgroundImageFix"/>
<feBlend mode="normal" in="SourceGraphic" in2="BackgroundImageFix" result="shape"/>
<feGaussianBlur stdDeviation="150" result="effect1_foregroundBlur_1480_1954"/>
</filter>
<filter id="filter1_f_1480_1954" x="-300.578" y="-247.52" width="663.157" height="618.739" filterUnits="userSpaceOnUse" color-interpolation-filters="sRGB">
<feFlood flood-opacity="0" result="BackgroundImageFix"/>
<feBlend mode="normal" in="SourceGraphic" in2="BackgroundImageFix" result="shape"/>
<feGaussianBlur stdDeviation="150" result="effect1_foregroundBlur_1480_1954"/>
</filter>
<filter id="filter2_f_1480_1954" x="-257.795" y="-232.91" width="708.318" height="632.138" filterUnits="userSpaceOnUse" color-interpolation-filters="sRGB">
<feFlood flood-opacity="0" result="BackgroundImageFix"/>
<feBlend mode="normal" in="SourceGraphic" in2="BackgroundImageFix" result="shape"/>
<feGaussianBlur stdDeviation="150" result="effect1_foregroundBlur_1480_1954"/>
</filter>
<filter id="filter3_f_1480_1954" x="-147.101" y="-234.02" width="708.318" height="632.138" filterUnits="userSpaceOnUse" color-interpolation-filters="sRGB">
<feFlood flood-opacity="0" result="BackgroundImageFix"/>
<feBlend mode="normal" in="SourceGraphic" in2="BackgroundImageFix" result="shape"/>
<feGaussianBlur stdDeviation="150" result="effect1_foregroundBlur_1480_1954"/>
</filter>
<linearGradient id="paint0_linear_1480_1954" x1="213" y1="55" x2="183.549" y2="154.262" gradientUnits="userSpaceOnUse">
<stop offset="0.0319654" stop-color="#2EB600"/>
<stop offset="0.81867" stop-color="#A6E52C"/>
</linearGradient>
</defs>
</svg>
